<svg width="124" height="22" viewBox="0 0 124 22" fill="none" xmlns="http://www.w3.org/2000/svg">
<path d="M7.01305 17.2255C5.78032 17.2255 4.6002 17.0526 3.4727 16.7069C2.3452 16.3461 1.45072 15.8875 0.78925 15.3313L1.804 13.0537C2.4354 13.5498 3.21713 13.9633 4.1492 14.294C5.08127 14.6247 6.03588 14.7901 7.01305 14.7901C7.83988 14.7901 8.50887 14.6999 9.02 14.5195C9.53113 14.3391 9.90697 14.0986 10.1475 13.7979C10.388 13.4822 10.5083 13.1289 10.5083 12.738C10.5083 12.257 10.3354 11.8736 9.98965 11.588C9.64388 11.2873 9.19288 11.0543 8.63665 10.8889C8.09545 10.7085 7.4866 10.5432 6.8101 10.3928C6.14863 10.2425 5.47965 10.0696 4.80315 9.8742C4.14168 9.66373 3.53283 9.40065 2.9766 9.08495C2.4354 8.75422 1.99192 8.31825 1.64615 7.77705C1.30038 7.23585 1.1275 6.54432 1.1275 5.70245C1.1275 4.84555 1.353 4.06382 1.804 3.35725C2.27003 2.63565 2.96908 2.06438 3.90115 1.64345C4.84825 1.20748 6.0434 0.9895 7.4866 0.9895C8.4337 0.9895 9.37328 1.10977 10.3054 1.3503C11.2374 1.59083 12.0492 1.9366 12.7407 2.3876L11.8162 4.66515C11.1096 4.24422 10.3805 3.93603 9.62885 3.7406C8.87718 3.53013 8.15558 3.4249 7.46405 3.4249C6.65225 3.4249 5.99078 3.52262 5.47965 3.71805C4.98355 3.91348 4.61523 4.16905 4.3747 4.48475C4.1492 4.80045 4.03645 5.16125 4.03645 5.56715C4.03645 6.04822 4.20182 6.43908 4.53255 6.73975C4.87832 7.02538 5.3218 7.25088 5.863 7.41625C6.41923 7.58162 7.0356 7.74698 7.7121 7.91235C8.3886 8.06268 9.05758 8.23557 9.71905 8.431C10.3955 8.62643 11.0044 8.882 11.5456 9.1977C12.1018 9.5134 12.5453 9.94185 12.8761 10.4831C13.2218 11.0242 13.3947 11.7083 13.3947 12.5351C13.3947 13.377 13.1617 14.1587 12.6957 14.8803C12.2447 15.5869 11.5456 16.1581 10.5985 16.5941C9.6514 17.015 8.45625 17.2255 7.01305 17.2255ZM16.8029 21.5325C16.2166 21.5325 15.6303 21.4348 15.044 21.2394C14.4577 21.044 13.9691 20.7734 13.5783 20.4276L14.7058 18.353C14.9914 18.6086 15.3146 18.8115 15.6754 18.9619C16.0362 19.1122 16.4045 19.1873 16.7804 19.1873C17.2915 19.1873 17.7049 19.0596 18.0206 18.804C18.3363 18.5484 18.6295 18.12 18.9001 17.5187L19.5991 15.9401L19.8246 15.6019L24.3797 4.9583H27.0857L21.4482 17.9697C21.0724 18.8717 20.6515 19.5857 20.1854 20.1119C19.7344 20.6381 19.2233 21.0064 18.652 21.2169C18.0958 21.4273 17.4794 21.5325 16.8029 21.5325ZM19.2834 17.4285L13.8489 4.9583H16.7804L21.2002 15.3538L19.2834 17.4285ZM34.1772 17.1578C32.8392 17.1578 31.6666 16.8948 30.6594 16.3686C29.6672 15.8274 28.8929 15.0908 28.3367 14.1587C27.7955 13.2266 27.5249 12.1668 27.5249 10.9791C27.5249 9.77648 27.788 8.71663 28.3142 7.7996C28.8554 6.86753 29.592 6.13842 30.5241 5.61225C31.4712 5.08608 32.546 4.823 33.7487 4.823C34.9213 4.823 35.9661 5.07857 36.8832 5.5897C37.8002 6.10083 38.5218 6.82243 39.048 7.7545C39.5741 8.68657 39.8372 9.784 39.8372 11.0468C39.8372 11.1671 39.8297 11.3024 39.8147 11.4527C39.8147 11.603 39.8071 11.7458 39.7921 11.8811H29.7574V10.0095H38.3038L37.1989 10.5958C37.2139 9.90427 37.0711 9.29542 36.7704 8.76925C36.4698 8.24308 36.0563 7.82967 35.5302 7.529C35.019 7.22833 34.4252 7.078 33.7487 7.078C33.0572 7.078 32.4483 7.22833 31.9222 7.529C31.411 7.82967 31.0051 8.2506 30.7045 8.7918C30.4188 9.31797 30.276 9.94185 30.276 10.6634V11.1145C30.276 11.836 30.4414 12.475 30.7721 13.0312C31.1028 13.5874 31.5689 14.0159 32.1702 14.3166C32.7715 14.6172 33.4631 14.7675 34.2448 14.7675C34.9213 14.7675 35.5302 14.6623 36.0714 14.4518C36.6126 14.2414 37.0936 13.9107 37.5146 13.4597L39.0254 15.196C38.4842 15.8274 37.8002 16.316 36.9734 16.6617C36.1616 16.9925 35.2295 17.1578 34.1772 17.1578ZM47.6411 17.1578C46.4835 17.1578 45.4387 16.9023 44.5067 16.3912C43.5896 15.865 42.868 15.1434 42.3419 14.2264C41.8157 13.3093 41.5526 12.2269 41.5526 10.9791C41.5526 9.73138 41.8157 8.64898 42.3419 7.73195C42.868 6.81492 43.5896 6.10083 44.5067 5.5897C45.4387 5.07857 46.4835 4.823 47.6411 4.823C48.6483 4.823 49.5503 5.0485 50.3471 5.4995C51.1439 5.93547 51.7753 6.60445 52.2413 7.50645C52.7073 8.40845 52.9404 9.56602 52.9404 10.9791C52.9404 12.3772 52.7149 13.5348 52.2639 14.4518C51.8129 15.3538 51.189 16.0303 50.3922 16.4813C49.5954 16.9323 48.6784 17.1578 47.6411 17.1578ZM47.9794 14.745C48.6559 14.745 49.2572 14.5947 49.7834 14.294C50.3246 13.9933 50.753 13.5574 51.0687 12.9861C51.3994 12.4148 51.5648 11.7458 51.5648 10.9791C51.5648 10.1974 51.3994 9.52843 51.0687 8.9722C50.753 8.40093 50.3246 7.96497 49.7834 7.6643C49.2572 7.36363 48.6559 7.2133 47.9794 7.2133C47.3029 7.2133 46.694 7.36363 46.1528 7.6643C45.6266 7.96497 45.1982 8.40093 44.8675 8.9722C44.5518 9.52843 44.3939 10.1974 44.3939 10.9791C44.3939 11.7458 44.5518 12.4148 44.8675 12.9861C45.1982 13.5574 45.6266 13.9933 46.1528 14.294C46.694 14.5947 47.3029 14.745 47.9794 14.745ZM51.6325 17V14.1587L51.7452 10.9566L51.5197 7.7545V0.2679H54.3159V17H51.6325ZM64.5286 17V1.215H71.023C72.4211 1.215 73.6162 1.4405 74.6084 1.8915C75.6157 2.3425 76.3899 2.98893 76.9311 3.8308C77.4723 4.67267 77.7429 5.67238 77.7429 6.82995C77.7429 7.98752 77.4723 8.98723 76.9311 9.8291C76.3899 10.6559 75.6157 11.2948 74.6084 11.7458C73.6162 12.1818 72.4211 12.3998 71.023 12.3998H66.1522L67.4601 11.0693V17H64.5286ZM74.8565 17L70.8651 11.2723H73.9996L78.0135 17H74.8565ZM67.4601 11.385L66.1522 9.98695H70.8877C72.1806 9.98695 73.1502 9.70883 73.7966 9.1526C74.4581 8.59637 74.7888 7.82215 74.7888 6.82995C74.7888 5.82272 74.4581 5.0485 73.7966 4.5073C73.1502 3.9661 72.1806 3.6955 70.8877 3.6955H66.1522L67.4601 2.2523V11.385ZM88.0609 17V14.5646L87.9031 14.0459V9.784C87.9031 8.95717 87.655 8.31825 87.1589 7.86725C86.6628 7.40122 85.9112 7.1682 84.9039 7.1682C84.2274 7.1682 83.5584 7.27343 82.897 7.4839C82.2505 7.69437 81.7018 7.98752 81.2508 8.36335L80.1459 6.3113C80.7923 5.8152 81.559 5.44688 82.446 5.20635C83.348 4.95078 84.28 4.823 85.2422 4.823C86.986 4.823 88.3315 5.24393 89.2786 6.0858C90.2408 6.91263 90.7218 8.19798 90.7218 9.94185V17H88.0609ZM84.2725 17.1578C83.3705 17.1578 82.5813 17.0075 81.9048 16.7069C81.2283 16.3911 80.7021 15.9627 80.3263 15.4215C79.9655 14.8653 79.7851 14.2414 79.7851 13.5498C79.7851 12.8733 79.9429 12.2645 80.2586 11.7233C80.5894 11.1821 81.123 10.7536 81.8597 10.438C82.5963 10.1223 83.5735 9.9644 84.7912 9.9644H88.2864V11.836H84.9941C84.032 11.836 83.3856 11.9939 83.0548 12.3096C82.7241 12.6103 82.5587 12.9861 82.5587 13.4371C82.5587 13.9482 82.7617 14.3541 83.1676 14.6548C83.5735 14.9555 84.1372 15.1058 84.8588 15.1058C85.5504 15.1058 86.1667 14.9479 86.7079 14.6322C87.2642 14.3166 87.6625 13.8505 87.9031 13.2341L88.3766 14.9254C88.106 15.632 87.6174 16.1807 86.9109 16.5715C86.2193 16.9624 85.3399 17.1578 84.2725 17.1578ZM94.7227 17V4.2818C94.7227 3.019 95.091 2.01177 95.8276 1.2601C96.5793 0.4934 97.6467 0.11005 99.0297 0.11005C99.5258 0.11005 99.9919 0.162667 100.428 0.2679C100.879 0.373133 101.255 0.5385 101.555 0.764L100.789 2.8837C100.578 2.71833 100.338 2.59807 100.067 2.5229C99.7964 2.4327 99.5183 2.3876 99.2327 2.3876C98.6464 2.3876 98.2029 2.55297 97.9022 2.8837C97.6016 3.1994 97.4512 3.68047 97.4512 4.3269V5.6799L97.5414 6.9427V17H94.7227ZM92.7383 7.3035V5.0485H100.766V7.3035H92.7383ZM109.862 17V14.5646L109.704 14.0459V9.784C109.704 8.95717 109.456 8.31825 108.96 7.86725C108.464 7.40122 107.712 7.1682 106.705 7.1682C106.029 7.1682 105.36 7.27343 104.698 7.4839C104.052 7.69437 103.503 7.98752 103.052 8.36335L101.947 6.3113C102.594 5.8152 103.36 5.44688 104.247 5.20635C105.149 4.95078 106.081 4.823 107.043 4.823C108.787 4.823 110.133 5.24393 111.08 6.0858C112.042 6.91263 112.523 8.19798 112.523 9.94185V17H109.862ZM106.074 17.1578C105.172 17.1578 104.383 17.0075 103.706 16.7069C103.03 16.3911 102.503 15.9627 102.128 15.4215C101.767 14.8653 101.586 14.2414 101.586 13.5498C101.586 12.8733 101.744 12.2645 102.06 11.7233C102.391 11.1821 102.924 10.7536 103.661 10.438C104.398 10.1223 105.375 9.9644 106.592 9.9644H110.088V11.836H106.795C105.833 11.836 105.187 11.9939 104.856 12.3096C104.525 12.6103 104.36 12.9861 104.36 13.4371C104.36 13.9482 104.563 14.3541 104.969 14.6548C105.375 14.9555 105.938 15.1058 106.66 15.1058C107.352 15.1058 107.968 14.9479 108.509 14.6322C109.065 14.3166 109.464 13.8505 109.704 13.2341L110.178 14.9254C109.907 15.632 109.419 16.1807 108.712 16.5715C108.021 16.9624 107.141 17.1578 106.074 17.1578ZM120.673 17.1578C119.35 17.1578 118.328 16.8196 117.606 16.1431C116.885 15.4516 116.524 14.4368 116.524 13.0988V2.2974H119.343V13.0312C119.343 13.6025 119.486 14.0459 119.771 14.3616C120.072 14.6774 120.485 14.8352 121.011 14.8352C121.643 14.8352 122.169 14.6698 122.59 14.3391L123.379 16.346C123.048 16.6166 122.643 16.8196 122.161 16.9549C121.68 17.0902 121.184 17.1578 120.673 17.1578ZM114.54 7.3035V5.0485H122.567V7.3035H114.54Z" fill="url(#paint0_linear_6_3801)"/>
<defs>
<linearGradient id="paint0_linear_6_3801" x1="0" y1="9" x2="127" y2="9" gradientUnits="userSpaceOnUse">
<stop stop-color="#00F5A0"/>
<stop offset="1" stop-color="#00D9F5"/>
</linearGradient>
</defs>
</svg>
