<svg xmlns="http://www.w3.org/2000/svg"  viewBox="0 0 64 64" width="64px" height="64px"><path fill="#c6c5ca" d="M61,4V7H3V4A1,1,0,0,1,4,3H60A1,1,0,0,1,61,4Z"/><path fill="#898890" d="M61,4V7H57V4a1,1,0,0,0-1-1h4A1,1,0,0,1,61,4Z"/><rect width="58" height="18" x="3" y="7" fill="#46f8ff"/><rect width="4" height="18" x="57" y="7" fill="#00d7df"/><path fill="#957856" d="M44,29.71v4.58l-3.9.48a6.022,6.022,0,0,1-.34.83l-15.71-.42a2.864,2.864,0,0,1-.15-.41L20,34.29V29.71l3.9-.48a6.765,6.765,0,0,1,.41-1l-2.41-3.1.12-.11,3.11-3.12,3.1,2.41a6.765,6.765,0,0,1,1-.41l.48-3.9h4.58l.48,3.9a6.765,6.765,0,0,1,1,.41l3.1-2.41,3.12,3.12.11.11-2.41,3.1a6.765,6.765,0,0,1,.41,1Z"/><path fill="#6a563d" d="M44,29.71v4.58l-3.9.48a6.022,6.022,0,0,1-.34.83L24.4,35.19A17.839,17.839,0,0,0,34,31a18.22,18.22,0,0,0,5.44-8.53l2.55,2.55.11.11-2.41,3.1a6.765,6.765,0,0,1,.41,1Z"/><circle cx="58" cy="32" r="3" fill="#ffde55"/><path fill="#ebbf00" d="M61,32a3,3,0,0,1-5.87.87A3.1,3.1,0,0,0,56,33a3,3,0,0,0,3-3,3.1,3.1,0,0,0-.13-.87A2.982,2.982,0,0,1,61,32Z"/><path fill="#ffdaaa" d="M61,53c0,4.42-2.58,8-7,8H13A10,10,0,0,1,3,51a6,6,0,0,1,6-6,6,6,0,0,1,6-6,8.589,8.589,0,0,1,4,1,14.77,14.77,0,0,1,5.05-4.82,15.416,15.416,0,0,1,3.26-1.45A15.692,15.692,0,0,1,32,33a12.63,12.63,0,0,1,4.63.88,14,14,0,0,1,3.13,1.72v.01A17.7,17.7,0,0,1,44,40a10.6,10.6,0,0,1,5-1c2,0,6.63,2.49,7,6C59.47,45.87,61,49.26,61,53Z"/><path fill="#ffb655" d="M61,53c0,4.42-2.58,8-7,8H13a9.984,9.984,0,0,1-8.78-5.22A9.9,9.9,0,0,0,9,57H50c4.42,0,7-3.58,7-8a11.185,11.185,0,0,0-.65-3.89C59.57,46.1,61,49.39,61,53Z"/><path fill="#ffde55" d="M37,32a4.923,4.923,0,0,1-.37,1.88A12.63,12.63,0,0,0,32,33a15.692,15.692,0,0,0-4.69.73A5,5,0,1,1,37,32Z"/><path fill="#ebbf00" d="M37,32a4.923,4.923,0,0,1-.37,1.88,12.7,12.7,0,0,0-2.77-.74A4.809,4.809,0,0,0,34,32a5.013,5.013,0,0,0-3.5-4.78A5.335,5.335,0,0,1,32,27,5,5,0,0,1,37,32Z"/><circle cx="6" cy="32" r="3" fill="#ffde55"/><path fill="#ebbf00" d="M9,32a3,3,0,0,1-5.87.87A3.1,3.1,0,0,0,4,33a3,3,0,0,0,3-3,3.1,3.1,0,0,0-.13-.87A2.982,2.982,0,0,1,9,32Z"/><path d="M61,26a1,1,0,0,0,1-1V4a2.006,2.006,0,0,0-2-2H4A2.006,2.006,0,0,0,2,4V25a1,1,0,0,0,1,1H21.31l1.8,2.32-3.23.4a1,1,0,0,0-.88.99V31H9.86a4,4,0,1,0,0,2H19v1.29a1,1,0,0,0,.88.99l1.88.23a16.189,16.189,0,0,0-3.12,3.23A9.078,9.078,0,0,0,15,38a7.011,7.011,0,0,0-6.94,6.06A7.011,7.011,0,0,0,2,51,11.007,11.007,0,0,0,13,62H54c4.71,0,8-3.7,8-9,0-4.42-1.9-7.65-5.12-8.78C56.01,40.53,51.41,38,49,38a11.859,11.859,0,0,0-4.65.77,18.967,18.967,0,0,0-2.96-3.15l2.73-.34a1,1,0,0,0,.88-.99V33h9.14a4,4,0,1,0,0-2H45V29.71a1,1,0,0,0-.88-.99l-3.23-.4L42.69,26ZM6,34a2,2,0,1,1,2-2A2.006,2.006,0,0,1,6,34Zm52-4a2,2,0,1,1-2,2A2.006,2.006,0,0,1,58,30ZM4,4H60V6H4ZM43.29,40.71l.01-.01a1,1,0,0,0,1.08.23l.3-.13A9.413,9.413,0,0,1,49,40a8.19,8.19,0,0,1,5.05,2.95,5.763,5.763,0,0,0-2.03-.01,5.186,5.186,0,0,0-3.91,2.61,5.489,5.489,0,0,0,2.44,7.34l.9-1.78a3.489,3.489,0,0,1-1.56-4.66,3.32,3.32,0,0,1,2.45-1.54,3.368,3.368,0,0,1,2.95.8l.01-.01a.973.973,0,0,0,.46.27C58.41,46.64,60,49.27,60,53c0,3.48-1.86,7-6,7H41a3.385,3.385,0,0,1-2.65-1.53,3.284,3.284,0,0,1-.64-2.81,3.474,3.474,0,0,1,4.39-2.2l.63-1.89a5.464,5.464,0,0,0-6.92,3.46,5.166,5.166,0,0,0,.92,4.61c.09.13.19.24.28.36H26.99c.09-.12.19-.23.28-.36a5.166,5.166,0,0,0,.92-4.61,5.464,5.464,0,0,0-6.92-3.46l.63,1.89a3.474,3.474,0,0,1,4.39,2.2,3.284,3.284,0,0,1-.64,2.81A3.385,3.385,0,0,1,23,60H13a9.014,9.014,0,0,1-9-9,5.01,5.01,0,0,1,4.08-4.91,4.74,4.74,0,0,0,3.73,3.89,3.985,3.985,0,0,0,.84.08,4.849,4.849,0,0,0,4.23-2.59l-1.76-.94a2.814,2.814,0,0,1-2.93,1.49A2.82,2.82,0,0,1,10,45.06H9.99c0-.02.01-.04.01-.06a5,5,0,0,1,5-5,7.589,7.589,0,0,1,3.57.9.99.99,0,0,0,1.13-.2l.01.01a3.368,3.368,0,0,1,2.95-.8,3.32,3.32,0,0,1,2.45,1.54,3.481,3.481,0,0,1-1.56,4.66l.9,1.78a5.472,5.472,0,0,0,2.44-7.34,5.186,5.186,0,0,0-3.91-2.61,6.688,6.688,0,0,0-.89-.08A14.884,14.884,0,0,1,32,34a12.7,12.7,0,0,1,8.91,3.86,6.688,6.688,0,0,0-.89.08,5.186,5.186,0,0,0-3.91,2.61,5.489,5.489,0,0,0,2.44,7.34l.9-1.78a3.489,3.489,0,0,1-1.56-4.66,3.32,3.32,0,0,1,2.45-1.54A3.368,3.368,0,0,1,43.29,40.71ZM28,32a4,4,0,0,1,8,0,4.066,4.066,0,0,1-.06.6A13.492,13.492,0,0,0,32,32a16.834,16.834,0,0,0-3.96.48A3.884,3.884,0,0,1,28,32Zm15-1.41v2.82l-3.02.37a.977.977,0,0,0-.64.35,15.561,15.561,0,0,0-1.5-.81A5.815,5.815,0,0,0,38,32a6,6,0,0,0-12,0,6.475,6.475,0,0,0,.1,1.08,15.625,15.625,0,0,0-1.77.79.851.851,0,0,0-.31-.09L21,33.41V30.59l3.02-.37a.993.993,0,0,0,.83-.69,5.887,5.887,0,0,1,.35-.85.973.973,0,0,0-.1-1.06l-1.87-2.41,1.98-1.98,2.41,1.87a1.015,1.015,0,0,0,1.06.11,5.383,5.383,0,0,1,.85-.36.993.993,0,0,0,.69-.83L30.59,21h2.82l.37,3.02a.993.993,0,0,0,.69.83,5.383,5.383,0,0,1,.85.36,1.015,1.015,0,0,0,1.06-.11l2.41-1.87,1.98,1.98L38.9,27.62a.973.973,0,0,0-.1,1.06,5.887,5.887,0,0,1,.35.85.993.993,0,0,0,.83.69Zm-3.42-9.4a1.006,1.006,0,0,0-1.32-.08l-2.58,2-.4-3.23a1,1,0,0,0-.99-.88H29.71a1,1,0,0,0-.99.88l-.4,3.23-2.58-2a1.006,1.006,0,0,0-1.32.08L21.62,24H4V8H60V24H42.38Z"/><path d="M15,13a1,1,0,0,0-1-1H12V11a1,1,0,0,0-1-1H6v2h4v1a1,1,0,0,0,1,1h2v3a1,1,0,0,0,1,1h3V16H15Z"/><path d="M11,18a1,1,0,0,0-1-1H6v2H9v2a1,1,0,0,0,1,1h7V20H11Z"/><rect width="14" height="2" x="17" y="10"/><rect width="12" height="2" x="19" y="14"/><rect width="10" height="2" x="33" y="10"/><rect width="12" height="2" x="33" y="14"/><rect width="13" height="2" x="45" y="10"/><rect width="11" height="2" x="47" y="14"/><rect width="18" height="2" x="40" y="18"/><rect width="7" height="2" x="19" y="18"/></svg>